<?xml version="1.0" encoding="utf-8"?>
<!-- Generator: Adobe Illustrator 17.0.0, SVG Export Plug-In . SVG Version: 6.00 Build 0)  -->
<!DOCTYPE svg PUBLIC "-//W3C//DTD SVG 1.1//EN" "http://www.w3.org/Graphics/SVG/1.1/DTD/svg11.dtd">
<svg version="1.1" id="Layer_1" xmlns="http://www.w3.org/2000/svg" xmlns:xlink="http://www.w3.org/1999/xlink" x="0px" y="0px"
	 width="100px" height="100px" viewBox="0 0 100 100" enable-background="new 0 0 100 100" xml:space="preserve">
<g id="Layer_2">
	<polygon fill="#F9ED32" stroke="#F7941E" stroke-width="3.6475" points="49.835,12.288 54.285,22.123 61.557,14.143 62.752,24.872 
		72.137,19.533 69.956,30.108 80.528,27.927 75.189,37.311 85.919,38.506 77.938,45.777 87.774,50.229 77.938,54.682 85.919,61.954 
		75.189,63.146 80.528,72.529 69.956,70.349 72.137,80.923 62.752,75.584 61.557,86.313 54.285,78.333 49.835,88.168 45.383,78.333 
		38.11,86.313 36.917,75.584 27.533,80.923 29.713,70.349 19.141,72.529 24.48,63.146 13.751,61.954 21.729,54.682 11.892,50.229 
		21.729,45.777 13.751,38.506 24.48,37.311 19.141,27.927 29.713,30.108 27.533,19.533 36.917,24.872 38.11,14.143 45.383,22.123 	
		"/>
</g>
</svg>
