<?xml version="1.0" encoding="utf-8"?>
<!-- Generator: Adobe Illustrator 17.0.0, SVG Export Plug-In . SVG Version: 6.00 Build 0)  -->
<!DOCTYPE svg PUBLIC "-//W3C//DTD SVG 1.1//EN" "http://www.w3.org/Graphics/SVG/1.1/DTD/svg11.dtd">
<svg version="1.1" id="Layer_1" xmlns="http://www.w3.org/2000/svg" xmlns:xlink="http://www.w3.org/1999/xlink" x="0px" y="0px"
	 width="100px" height="100px" viewBox="0 0 100 100" enable-background="new 0 0 100 100" xml:space="preserve">
<g id="Layer_2">
	<g id="Layer_2_1_">
		<polygon fill="#F9ED32" stroke="#F7941E" stroke-width="3.0562" points="65.787,14.703 69.142,22.117 74.624,16.102 75.526,24.19 
			82.6,20.165 80.956,28.137 88.927,26.493 84.902,33.567 92.99,34.468 86.973,39.95 94.389,43.306 86.973,46.662 92.99,52.145 
			84.902,53.043 88.927,60.117 80.956,58.474 82.6,66.445 75.526,62.42 74.624,70.508 69.142,64.493 65.787,71.907 62.431,64.493 
			56.948,70.508 56.049,62.42 48.975,66.445 50.618,58.474 42.648,60.117 46.673,53.043 38.585,52.145 44.599,46.662 37.183,43.306 
			44.599,39.95 38.585,34.468 46.673,33.567 42.648,26.493 50.618,28.137 48.975,20.165 56.049,24.19 56.948,16.102 62.431,22.117 
					"/>
		<g id="Winter_Leaf_1_">
		</g>
		<g id="Maple_Leaf_2_1_">
			<g id="Leaf_3_1_">
			</g>
		</g>
	</g>
	<g>
		<path fill="#FFFFFF" d="M14.081,83.186c-16.973,0-10.867-30.072,9.855-22.24c0.27-21.177,25.883-26.823,34.524-7.657
			c6.103-6.209,18.612-2.19,18.763,7.974c18.612-7.037,24.865,21.66,7.745,21.834C64.713,83.3,29.274,83.186,14.081,83.186z"/>
		<path fill="#ADD9F2" d="M81.39,78.022c2.696-0.073,6.819-3.596,4.347-7.641c-2.432-3.983-9.214-2.996-13.485-0.299
			c0,0,0.452-6.744-2.698-9.89c-2.13-2.13-8.465-3.67-14.981,4.196l0,0c0,0-4.792-25.773-26.294-14.312
			c-7.135,3.804,6.728-7.795,13.71-8.465c3.683-0.354,8.091,1.649,8.091,1.649l8.382,10.025l5.999-3.282l5.396,1.798l5.394,3.596
			l1.975,5.863l6.416-1.069l6.443,1.347l4.346,5.246v4.794l-1.2,7.193l-5.395,4.194l-76.713,0.6L5.877,78.02"/>
		<path fill="none" stroke="#40B4E5" stroke-width="3.3697" stroke-linejoin="round" d="M14.081,83.186
			c-16.973,0-10.867-30.068,9.855-22.24c0.27-21.177,25.883-26.823,34.524-7.657c6.103-6.209,18.612-2.19,18.763,7.974
			c18.612-7.037,24.865,21.66,7.745,21.834C64.713,83.3,29.274,83.186,14.081,83.186z"/>
	</g>
</g>
</svg>
