<?xml version="1.0" encoding="utf-8"?>
<!-- Generator: Adobe Illustrator 17.0.0, SVG Export Plug-In . SVG Version: 6.00 Build 0)  -->
<!DOCTYPE svg PUBLIC "-//W3C//DTD SVG 1.1//EN" "http://www.w3.org/Graphics/SVG/1.1/DTD/svg11.dtd">
<svg version="1.1" id="Layer_1" xmlns="http://www.w3.org/2000/svg" xmlns:xlink="http://www.w3.org/1999/xlink" x="0px" y="0px"
	 width="100px" height="100px" viewBox="0 0 100 100" enable-background="new 0 0 100 100" xml:space="preserve">
<g id="Layer_2">
	<polygon fill="#F9ED32" stroke="#F7941E" stroke-width="2.647" points="72.814,16.078 75.398,21.797 79.629,17.158 80.324,23.397 
		85.779,20.291 84.512,26.439 90.657,25.171 87.552,30.626 93.79,31.321 89.153,35.549 94.872,38.137 89.153,40.726 93.79,44.952 
		87.552,45.648 90.657,51.102 84.512,49.836 85.779,55.981 80.324,52.878 79.629,59.116 75.398,54.476 72.814,60.195 70.225,54.476 
		65.997,59.116 65.302,52.878 59.848,55.981 61.114,49.836 54.966,51.102 58.072,45.648 51.834,44.952 56.472,40.726 50.756,38.137 
		56.472,35.549 51.834,31.321 58.072,30.626 54.966,25.171 61.114,26.439 59.848,20.291 65.302,23.397 65.997,17.158 70.225,21.797 
			"/>
	<g>
		<path fill="#FFFFFF" d="M14.28,66.756c-16.66,0-10.67-29.51,9.671-21.821c0.266-20.785,25.406-26.329,33.885-7.518
			c5.992-6.095,18.268-2.153,18.416,7.826c18.266-6.906,24.406,21.26,7.598,21.429C63.974,66.872,29.189,66.756,14.28,66.756z"/>
		<path fill="#CCCCCC" d="M80.34,61.692c2.645-0.073,5.508-3.248,3.083-7.219c-2.387-3.908-7.861-3.22-12.05-0.574
			c0,0,0.44-6.616-2.649-9.707c-2.089-2.089-8.307-3.603-14.703,4.118l0,0c0,0-4.707-25.293-25.809-14.043
			c-7.003,3.732,6.605-7.653,13.458-8.31c3.614-0.347,7.941,1.621,7.941,1.618l8.226,9.84l5.89-3.22l5.295,1.763l5.293,3.529
			l1.939,5.756l6.298-1.05l6.324,1.324l4.264,5.147v4.706l-1.177,7.058l-5.295,4.118l-75.292,0.587l-5.15-5.44"/>
		<path fill="none" stroke="#999999" stroke-width="3.5293" d="M14.28,66.756c-16.66,0-10.67-29.507,9.671-21.821
			c0.266-20.785,25.406-26.329,33.885-7.519c5.992-6.093,18.268-2.15,18.416,7.829c18.266-6.908,24.406,21.26,7.598,21.429
			C63.974,66.872,29.189,66.756,14.28,66.756z"/>
	</g>
	<g>
		<path fill="#FFFFFF" d="M32.402,83.637c-12.616,0-8.081-22.348,7.327-16.526c0.197-15.742,19.236-19.937,25.657-5.694
			c4.537-4.615,13.835-1.628,13.946,5.926c13.835-5.229,18.484,16.101,5.756,16.229C70.035,83.721,43.691,83.637,32.402,83.637z"/>
		<path fill="#CCCCCC" d="M82.429,79.799c2.005-0.055,4.171-2.458,2.335-5.466c-1.811-2.96-5.953-2.44-9.127-0.436
			c0,0,0.334-5.011-2.005-7.35c-1.582-1.584-6.29-2.729-11.136,3.118l0,0c0,0-3.564-19.156-19.544-10.635
			c-5.305,2.827,5.001-5.794,10.191-6.29c2.737-0.263,6.012,1.224,6.012,1.224l6.228,7.452l4.46-2.44l4.01,1.334l4.008,2.674
			l1.468,4.36L84.1,66.55l4.786,1l3.234,3.9v3.561l-0.892,5.348l-4.008,3.116l-57.018,0.447L26.305,79.8"/>
		<path fill="none" stroke="#999999" stroke-width="3.5293" d="M32.402,83.637c-12.616,0-8.081-22.348,7.327-16.526
			c0.197-15.742,19.236-19.937,25.657-5.694c4.537-4.615,13.835-1.628,13.946,5.926c13.835-5.232,18.484,16.101,5.756,16.229
			C70.035,83.721,43.691,83.637,32.402,83.637z"/>
	</g>
</g>
</svg>
