<?xml version="1.0" encoding="utf-8"?>
<!-- Generator: Adobe Illustrator 17.0.0, SVG Export Plug-In . SVG Version: 6.00 Build 0)  -->
<!DOCTYPE svg PUBLIC "-//W3C//DTD SVG 1.1//EN" "http://www.w3.org/Graphics/SVG/1.1/DTD/svg11.dtd">
<svg version="1.1" id="Layer_1" xmlns="http://www.w3.org/2000/svg" xmlns:xlink="http://www.w3.org/1999/xlink" x="0px" y="0px"
	 width="100px" height="100px" viewBox="0 0 100 100" enable-background="new 0 0 100 100" xml:space="preserve">
<g id="Layer_2">
	<g>
		<path fill="#FFFFFF" d="M14.583,70.462c-16.912,0-10.831-29.96,9.821-22.154c0.27-21.103,25.79-26.728,34.401-7.632
			c6.083-6.188,18.546-2.185,18.696,7.945c18.544-7.01,24.777,21.584,7.713,21.755C65.036,70.58,29.719,70.462,14.583,70.462z"/>
		<path fill="#ADD9F2" d="M81.652,65.32c2.687-0.074,5.592-3.297,3.129-7.329c-2.424-3.967-7.981-3.27-12.236-0.583
			c0,0,0.449-6.717-2.687-9.853c-2.121-2.124-8.434-3.66-14.927,4.179l0,0c0,0-4.777-25.678-26.204-14.258
			c-7.11,3.789,6.708-7.769,13.662-8.434c3.671-0.353,8.063,1.643,8.063,1.643l8.352,9.987l5.979-3.27l5.376,1.79l5.373,3.583
			l1.969,5.844l6.394-1.067l6.417,1.344l4.331,5.226v4.777l-1.194,7.168l-5.374,4.181l-76.44,0.596l-5.228-5.523"/>
		<path fill="none" stroke="#40B4E5" stroke-width="3.5831" d="M14.583,70.462c-16.912,0-10.831-29.957,9.821-22.154
			c0.27-21.103,25.79-26.728,34.401-7.634c6.083-6.185,18.546-2.183,18.696,7.948c18.544-7.013,24.777,21.584,7.713,21.755
			C65.036,70.58,29.719,70.462,14.583,70.462z"/>
	</g>
</g>
</svg>
