<?xml version="1.0" encoding="utf-8"?>
<!-- Generator: Adobe Illustrator 17.0.0, SVG Export Plug-In . SVG Version: 6.00 Build 0)  -->
<!DOCTYPE svg PUBLIC "-//W3C//DTD SVG 1.1//EN" "http://www.w3.org/Graphics/SVG/1.1/DTD/svg11.dtd">
<svg version="1.1" id="Layer_1" xmlns="http://www.w3.org/2000/svg" xmlns:xlink="http://www.w3.org/1999/xlink" x="0px" y="0px"
	 width="100px" height="100px" viewBox="0 0 100 100" enable-background="new 0 0 100 100" xml:space="preserve">
<g id="Layer_2">
	<g>
		
			<line fill="none" stroke="#999999" stroke-width="3" stroke-linecap="round" stroke-dasharray="12.9782,7.7869" x1="62.899" y1="94.833" x2="86.126" y2="46.798"/>
		
			<line fill="none" stroke="#999999" stroke-width="3" stroke-linecap="round" stroke-dasharray="12.9782,7.7869" x1="48.438" y1="94.833" x2="71.666" y2="46.798"/>
		
			<line fill="none" stroke="#999999" stroke-width="3" stroke-linecap="round" stroke-dasharray="12.9782,7.7869" x1="33.977" y1="94.833" x2="57.206" y2="46.798"/>
		
			<line fill="none" stroke="#999999" stroke-width="3" stroke-linecap="round" stroke-dasharray="12.9782,7.7869" x1="19.517" y1="94.833" x2="42.745" y2="46.798"/>
		
			<line fill="none" stroke="#999999" stroke-width="3" stroke-linecap="round" stroke-dasharray="12.9782,7.7869" x1="5.057" y1="94.833" x2="28.284" y2="46.798"/>
	</g>
	<g>
		<g>
			<path fill="#FFFFFF" d="M14.074,46.772c-16.834,0-10.781-29.823,9.776-22.055C24.119,3.713,49.523-1.888,58.093,17.12
				c6.053-6.158,18.461-2.174,18.608,7.91c18.461-6.98,24.664,21.487,7.68,21.654C64.296,46.886,29.14,46.772,14.074,46.772z"/>
			<path fill="#CCCCCC" d="M80.835,41.654c2.675-0.075,5.566-3.282,3.115-7.295c-2.413-3.951-7.944-3.256-12.18-0.581
				c0,0,0.446-6.686-2.675-9.808c-2.112-2.114-8.398-3.642-14.861,4.161l0,0c0,0-4.755-25.562-26.081-14.194
				c-7.074,3.773,6.677-7.732,13.6-8.396c3.655-0.349,8.026,1.635,8.026,1.635l8.314,9.944l5.952-3.258l5.351,1.783l5.348,3.566
				l1.957,5.817l6.367-1.062l6.388,1.337l4.311,5.202v4.758l-1.189,7.133l-5.351,4.16l-76.09,0.594l-5.204-5.498"/>
			<path fill="none" stroke="#999999" stroke-width="3" d="M14.074,46.772c-16.834,0-10.781-29.823,9.776-22.055
				C24.119,3.713,49.523-1.888,58.093,17.12c6.053-6.159,18.461-2.174,18.608,7.91c18.461-6.981,24.664,21.487,7.68,21.654
				C64.296,46.886,29.14,46.772,14.074,46.772z"/>
		</g>
	</g>
</g>
</svg>
